# xmcd CD database file
#
# Track frame offsets:
#	150
#	13032
#	22332
#	36487
#	47755
#	59329
#	73884
#	83593
#	99693
#	111428
#	128056
#	140381
#
# Disc length: 2058 seconds
#
# Revision: 0
# Processed by: cddbd v1.5.2PL0 Copyright (c) Steve Scherf et al.
# Submitted via: CDex 2.08
#
DISCID=af08080c
DTITLE=Glenn Cambell - Duets
DYEAR=2009
DGENRE=Country
TTITLE0=Morning Glory
TTITLE1=Let it be me
TTITLE2=Gentle on my Mind
TTITLE3=Sunday Morning
TTITLE4=All I Have to do is Dream
TTITLE5=I say a Little Prayer/By the time I get to Phoenix
TTITLE6=Youre easy to love
TTITLE7=Ease your pain
TTITLE8=United we stand
TTITLE9=I gotta have my baby back
TTITLE10=Something about you baby that I like
TTITLE11=Why dont we just sleep on it tonight
EXTD=YEAR: 2009
EXTT0=
EXTT1=
EXTT2=
EXTT3=
EXTT4=
EXTT5=
EXTT6=
EXTT7=
EXTT8=
EXTT9=
EXTT10=
EXTT11=
PLAYORDER=
